# xmcd CD database file
#
# Track frame offsets:
#	150
#	13860
#	28860
#	44162
#	58755
#	70965
#	83995
#	97342
#	111887
#	126080
#	141447
#	156310
#	170557
#	183807
#	196550
#	212867
#	228205
#	244300
#	258847
#	272842
#	286467
#	298600
#	312185
#	324235
#
# Disc length: 4497 seconds
#
# Revision: 1
# Processed by: cddbd v1.5.2PL0 Copyright (c) Steve Scherf et al.
# Submitted via: CDex 1.79
#
DISCID=71118f18
DTITLE=Various Artist - The Blues: 1927 - 1946 [CD2]
DYEAR=1900
DGENRE=Blues
TTITLE0=Whiskey Head Woman/Tommy McClennan
TTITLE1=Des'e My Blues/Tommy McClennan
TTITLE2=Baby Please Don't Go/Big Joe Williams
TTITLE3=Highway 49/Big Joe Williams
TTITLE4=Peach Orchard Mama/Big Joe Williams
TTITLE5=Catfish Blues/Robert Petway
TTITLE6=Take a Little Walk with Me/Robert Lockwood
TTITLE7=Rocks in My Bed/Leroy Carr
TTITLE8=Six Cold Feet in the Ground/Leroy Carr
TTITLE9=Devil's Son-in-Law/Peetie Wheatstraw
TTITLE10=Peetie Wheatstraw/Peetie Wheatstraw
TTITLE11=Vicksburg Blues Part 3/Brother Montgomery
TTITLE12=Worried Life Blues/Big Maceo
TTITLE13=Detroit Jump/Big Maceo
TTITLE14=Hard Working Man Blues/Joe Pullum with Andy Boy
TTITLE15=Friendless Blues/Big Bill Broonzy
TTITLE16=The Southern Blues/Big Bill Broonzy
TTITLE17=Kingfish Blues/Tampa Red
TTITLE18=Tough Luck/Robert Lee McCoy
TTITLE19=Good Morning Schoolgirl/Sonny Boy Williamson
TTITLE20=Elevator Woman/Sonny Boy Williamson
TTITLE21=Early in the Morning/Sonny Boy Williamson
TTITLE22=Key to the Highway/Jazz Gillum
TTITLE23=That's All Right/Arthur "Big Boy" Crudup
EXTD=
EXTT0=
EXTT1=
EXTT2=
EXTT3=
EXTT4=
EXTT5=
EXTT6=
EXTT7=
EXTT8=
EXTT9=
EXTT10=
EXTT11=
EXTT12=
EXTT13=
EXTT14=
EXTT15=
EXTT16=
EXTT17=
EXTT18=
EXTT19=
EXTT20=
EXTT21=
EXTT22=
EXTT23=
PLAYORDER=
